<?xml version="1.0" encoding="utf-8"?>
<svg viewBox="0 0 1024 1024" xmlns="http://www.w3.org/2000/svg">
  <path id="body-primary" d="M 139.194 209.804 C 124.938 194.117 125.461 176.189 126.987 150.394 C 128.607 122.311 145.678 101.425 167.755 87.693 C 216.676 57.179 294.538 80.255 308.414 141.336 C 318.855 187.3 297.398 207.374 280.282 223.441 C 262.115 240.512 265.261 244.421 278.232 251.097 C 290.961 257.628 320.571 257.915 345.031 238.653 C 374.833 215.192 388.708 193.642 419.126 225.921 C 459.323 268.596 439.727 357.901 372.878 396.714 C 303.883 436.672 233.792 420.65 203.61 412.83 C 173.332 404.963 116.068 377.214 105.769 321.235 C 97.185 274.603 125.365 248.952 150.206 234.98 C 168.565 224.634 158.17 230.593 139.194 209.804 Z" fill="#FFD527" style="">
    <title>Body Primary</title>
  </path>
  <path id="body-secondary" d="M 419.079 225.874 C 415.647 222.249 403.535 214.192 400.484 211.854 C 420.51 258.153 399.102 321.57 349.562 352.99 C 282.285 395.665 210.525 381.598 180.388 373.78 C 162.842 369.201 133.566 361.144 112.254 341.595 C 131.325 383.887 178.578 406.346 203.61 412.83 C 233.792 420.65 303.883 436.719 372.83 396.666 C 439.727 357.854 459.276 268.548 419.079 225.874 Z" fill="#FFC31A" style="">
    <title>Body Secondary</title>
  </path>
  <path id="eye" d="M 168.518 145.388 C 168.518 159.373 185.007 168.113 198.199 161.121 C 204.321 157.875 208.092 151.879 208.092 145.388 C 208.092 131.403 191.603 122.664 178.411 129.654 C 172.289 132.901 168.518 138.897 168.518 145.388 Z" fill="#543630" style="">
    <title>Eye</title>
  </path>
  <path id="body-outline" d="M 270.984 428.183 C 238.37 428.183 211.43 421.173 202.417 418.838 C 182.869 413.736 161.127 402.77 144.247 389.514 C 120.694 370.968 105.769 347.651 101.096 322.095 C 97.043 299.97 100.523 280.135 111.491 263.255 C 119.597 250.762 131.85 239.843 147.871 230.832 L 148.061 230.737 C 149.826 229.736 151.543 228.782 152.878 227.972 C 152.83 227.924 152.783 227.924 152.783 227.877 C 149.11 225.301 142.912 220.963 135.664 212.999 C 119.597 195.31 120.789 174.378 122.219 150.107 C 123.029 135.947 127.607 122.788 135.759 110.963 C 143.007 100.52 152.878 91.319 165.18 83.64 C 178.102 75.583 193.406 70.768 209.476 69.815 C 224.924 68.859 240.8 71.387 255.345 77.156 C 284.43 88.647 305.409 111.629 312.942 140.143 C 317.806 158.499 316.423 176.237 308.841 192.925 C 303.549 204.607 295.253 215.766 283.476 226.97 C 272.986 236.983 272.175 240.273 272.27 241.226 C 272.509 242.895 278.373 245.9 280.282 246.902 C 291.63 252.718 319.092 252.956 341.979 234.933 C 346.271 231.547 350.182 228.258 353.996 225.064 C 376.024 206.466 393.428 191.829 422.513 222.68 C 440.25 241.466 447.832 269.979 443.301 300.828 C 440.489 320.233 433.051 339.497 421.846 356.566 C 409.877 374.781 393.762 390.087 375.214 400.862 C 344.698 418.552 310.559 427.754 273.701 428.232 C 272.843 428.183 271.89 428.183 270.984 428.183 Z M 215.912 79.065 C 213.956 79.065 212.05 79.112 210.095 79.253 C 195.6 80.161 181.82 84.45 170.233 91.7 C 153.641 102.094 133.423 120.738 131.706 150.633 C 130.182 176.953 129.944 192.544 142.723 206.562 C 149.254 213.762 154.642 217.53 158.266 220.008 C 161.889 222.536 164.75 224.539 164.56 228.304 C 164.417 231.69 161.461 233.692 160.22 234.55 C 158.504 235.695 156.121 237.078 152.783 238.938 L 152.592 239.033 C 118.309 258.297 104.149 285.617 110.488 320.281 C 114.828 343.884 128.18 364.626 150.159 381.933 C 173.715 400.481 197.937 407.728 204.803 409.541 C 213.529 411.828 239.563 418.6 270.984 418.6 L 273.606 418.6 C 308.794 418.169 341.36 409.398 370.446 392.518 C 387.707 382.506 402.773 368.2 413.882 351.275 C 424.324 335.349 431.239 317.42 433.908 299.397 C 437.961 271.456 431.334 245.853 415.6 229.164 C 408.209 221.296 398.338 212.571 387.516 214.621 C 379.267 216.194 370.827 223.298 360.194 232.311 C 356.333 235.554 352.373 238.938 347.94 242.371 C 331.633 255.198 313.372 259.87 298.542 259.87 C 289.293 259.87 281.379 258.058 276.038 255.342 C 269.362 251.907 263.782 248.617 262.925 242.515 C 261.971 235.79 267.598 228.925 276.992 219.96 C 287.862 209.614 295.443 199.458 300.259 188.92 C 306.887 174.33 308.08 158.691 303.788 142.527 C 297.018 116.97 278.136 96.372 251.912 85.978 C 240.42 81.447 228.119 79.065 215.912 79.065 Z" fill="#543630" style="">
    <title>Body Outline</title>
  </path>
  <path id="beak-primary" d="M 126.175 159.455 C 126.175 159.455 130.278 174.998 155.12 184.439 C 166.943 188.969 179.578 189.35 183.536 203.606 C 185.92 212.093 181.724 219.96 172.666 226.684 C 157.17 238.175 137.191 234.456 123.363 232.025 C 118.881 231.215 104.196 228.734 88.318 217.29 C 74.061 206.992 60.997 185.726 73.251 177.145 C 85.504 168.561 101.716 178.287 126.175 159.455 Z" fill="#FF8F29" style="">
    <title>Beak Primary</title>
  </path>
  <path id="beak-secondary" d="M 183.536 203.558 C 182.106 198.505 179.627 195.167 176.431 192.832 C 174.955 194.404 173.188 195.883 171.234 197.36 C 155.738 208.851 143.389 208.136 126.175 207.184 C 121.647 206.944 105.339 206.562 89.463 195.071 C 85.076 191.924 76.158 184.724 72.727 180.196 C 72.202 180.48 73.251 179.814 72.727 180.196 C 60.519 188.777 74.012 206.896 88.27 217.195 C 104.149 228.687 118.832 231.167 123.315 231.93 C 137.191 234.409 157.17 238.079 172.617 226.589 C 181.724 219.914 185.873 212.093 183.536 203.558 Z" fill="#FF6E0B" style="">
    <title>Beak Secondary</title>
  </path>
  <path id="beak-outline" d="M 145.773 239.319 C 137.382 239.319 129.37 237.888 122.935 236.744 L 122.361 236.649 C 117.356 235.743 102.098 233.074 85.551 221.104 C 74.586 213.191 63.57 198.839 63.618 186.583 C 63.666 180.959 66.051 176.332 70.485 173.185 C 76.445 168.99 82.93 168.418 89.795 167.846 C 99.188 167.034 109.773 166.129 123.315 155.687 C 124.603 154.685 126.271 154.351 127.797 154.924 C 129.322 155.448 130.42 156.688 130.801 158.214 C 130.896 158.547 131.946 161.742 135.427 165.843 C 138.811 169.85 145.296 175.569 156.835 179.957 C 159.172 180.863 161.603 181.578 163.939 182.294 C 173.476 185.202 184.3 188.492 188.114 202.27 C 190.116 209.377 189.497 220.055 175.479 230.451 C 166.229 237.317 155.738 239.319 145.773 239.319 Z M 124.269 166.654 C 110.727 175.569 99.618 176.523 90.559 177.333 C 84.55 177.86 79.783 178.287 75.921 180.959 C 74.012 182.294 73.107 184.105 73.107 186.631 C 73.059 194.166 81.118 206.181 91.083 213.333 C 105.864 224.015 119.501 226.445 123.984 227.209 L 124.603 227.303 C 137.906 229.688 156.168 232.882 169.853 222.775 C 177.624 217.004 180.723 210.997 179.007 204.846 C 176.67 196.502 171.043 194.404 161.222 191.448 C 158.694 190.685 156.121 189.874 153.497 188.872 C 136.094 182.294 127.941 172.758 124.269 166.654 Z M 130.754 158.214 Z" fill="#543630" style="">
    <title>Beak Outline</title>
  </path>
  <g style="">
    <title>Tears</title>
    <g transform="matrix(1, 0, 0, 1, -1.181178, 0.930728)">
      <title>Tear 1</title>
      <path style="fill: rgb(0, 171, 213);" d="M 209.375 167.013 C 209.375 167.013 230.62 189.794 209.375 189.794 C 188.13 189.794 209.375 167.013 209.375 167.013 Z"/>
      <path style="fill: rgb(0, 159, 211);" d="M 212.304 170.498 C 210.672 168.405 209.375 167.013 209.375 167.013 C 209.375 167.013 188.13 189.794 209.375 189.794 C 210.461 189.794 211.432 189.731 212.304 189.618 C 200.328 188.066 207.667 176.446 212.304 170.498 Z"/>
      <path d="M 209.375 190.178 C 204.286 190.178 201.136 188.865 200.01 186.277 C 199.332 184.717 199.404 182.704 200.225 180.296 C 200.867 178.413 201.968 176.275 203.497 173.942 C 206.088 169.988 209.064 166.783 209.094 166.751 L 209.375 166.45 L 209.656 166.751 C 209.686 166.783 212.661 169.988 215.253 173.942 C 216.782 176.276 217.882 178.413 218.524 180.296 C 219.345 182.704 219.418 184.717 218.74 186.277 C 217.614 188.865 214.463 190.178 209.375 190.178 Z M 209.375 167.584 C 208.578 168.473 206.228 171.174 204.133 174.371 C 201.813 177.914 199.336 182.802 200.715 185.971 C 201.707 188.253 204.62 189.41 209.375 189.41 C 214.129 189.41 217.043 188.253 218.035 185.971 C 219.413 182.802 216.936 177.914 214.616 174.371 C 212.522 171.174 210.171 168.473 209.375 167.584 Z" style="visibility: hidden;"/>
      <g transform="matrix(0.046343, 0, 0, 0.046343, 197.511063, 166.450119)" style="visibility: hidden;">
        <path style="fill: rgb(255, 255, 255);" d="M150.603,461.668c-41.521-17.097-65.015-50.362-67.94-96.196 c-2.153-33.738,7.625-62.137,8.043-63.329l15.64,5.473l-7.82-2.737l7.822,2.728c-0.092,0.264-9.174,26.823-7.117,57.284 c2.658,39.383,22.065,66.788,57.681,81.453L150.603,461.668z"/>
        <rect x="247.65" y="152.993" style="fill: rgb(255, 255, 255);" width="22.093" height="16.57"/>
        <rect x="275.266" y="186.133" style="fill: rgb(255, 255, 255);" width="22.093" height="16.57"/>
        <rect x="286.312" y="152.993" style="fill: rgb(255, 255, 255);" width="22.093" height="16.57"/>
      </g>
    </g>
    <g transform="matrix(1, 0, 0, 1, -1.867484, -5.263139)">
      <title>Tear 2</title>
      <path style="fill: rgb(0, 171, 213);" d="M 222.595 197.36 C 222.595 197.36 243.605 219.888 222.595 219.888 C 201.585 219.888 222.595 197.36 222.595 197.36 Z"/>
      <path style="fill: rgb(0, 159, 211);" d="M 225.492 200.806 C 223.878 198.736 222.595 197.36 222.595 197.36 C 222.595 197.36 201.585 219.888 222.595 219.888 C 223.669 219.888 224.628 219.826 225.492 219.715 C 213.648 218.18 220.906 206.688 225.492 200.806 Z"/>
      <path d="M 222.595 220.268 C 217.562 220.268 214.447 218.97 213.334 216.41 C 212.663 214.867 212.735 212.877 213.546 210.495 C 214.181 208.633 215.27 206.519 216.782 204.212 C 219.344 200.302 222.287 197.132 222.317 197.101 L 222.595 196.803 L 222.872 197.101 C 222.902 197.132 225.845 200.302 228.408 204.212 C 229.92 206.519 231.008 208.633 231.643 210.495 C 232.455 212.877 232.526 214.867 231.856 216.41 C 230.743 218.97 227.627 220.268 222.595 220.268 Z M 222.595 197.924 C 221.807 198.803 219.482 201.475 217.412 204.636 C 215.117 208.139 212.667 212.974 214.03 216.107 C 215.011 218.364 217.893 219.509 222.595 219.509 C 227.296 219.509 230.178 218.364 231.159 216.107 C 232.522 212.974 230.073 208.139 227.778 204.636 C 225.707 201.475 223.383 198.803 222.595 197.924 Z" style="visibility: hidden;"/>
      <g transform="matrix(0.04583, 0, 0, 0.04583, 210.861938, 196.803131)" style="visibility: hidden;">
        <path style="fill:#FFFFFF;" d="M150.603,461.668c-41.521-17.097-65.015-50.362-67.94-96.196 c-2.153-33.738,7.625-62.137,8.043-63.329l15.64,5.473l-7.82-2.737l7.822,2.728c-0.092,0.264-9.174,26.823-7.117,57.284 c2.658,39.383,22.065,66.788,57.681,81.453L150.603,461.668z"/>
        <rect x="247.65" y="152.993" style="fill:#FFFFFF;" width="22.093" height="16.57"/>
        <rect x="275.266" y="186.133" style="fill:#FFFFFF;" width="22.093" height="16.57"/>
        <rect x="286.312" y="152.993" style="fill:#FFFFFF;" width="22.093" height="16.57"/>
      </g>
    </g>
    <g transform="matrix(1, 0, 0, 1, 3.849402, -8.598773)">
      <title>Tear 3</title>
      <path style="fill: rgb(0, 171, 213);" d="M 201.846 222.012 C 201.846 222.012 222.856 244.54 201.846 244.54 C 180.836 244.54 201.846 222.012 201.846 222.012 Z"/>
      <path style="fill: rgb(0, 159, 211);" d="M 204.743 225.458 C 203.129 223.388 201.846 222.012 201.846 222.012 C 201.846 222.012 180.836 244.54 201.846 244.54 C 202.92 244.54 203.879 244.478 204.743 244.367 C 192.899 242.832 200.157 231.34 204.743 225.458 Z"/>
      <path d="M 201.846 244.92 C 196.813 244.92 193.698 243.622 192.585 241.062 C 191.914 239.519 191.986 237.529 192.797 235.147 C 193.432 233.285 194.521 231.171 196.033 228.864 C 198.595 224.954 201.538 221.784 201.568 221.753 L 201.846 221.455 L 202.123 221.753 C 202.153 221.784 205.096 224.954 207.659 228.864 C 209.171 231.171 210.259 233.285 210.894 235.147 C 211.706 237.529 211.777 239.519 211.107 241.062 C 209.994 243.622 206.878 244.92 201.846 244.92 Z M 201.846 222.576 C 201.058 223.455 198.733 226.127 196.663 229.288 C 194.368 232.791 191.918 237.626 193.281 240.759 C 194.262 243.016 197.144 244.161 201.846 244.161 C 206.547 244.161 209.429 243.016 210.41 240.759 C 211.773 237.626 209.324 232.791 207.029 229.288 C 204.958 226.127 202.634 223.455 201.846 222.576 Z" style="visibility: hidden;"/>
      <g transform="matrix(0.04583, 0, 0, 0.04583, 190.112442, 221.454849)" style="visibility: hidden;">
        <path style="fill:#FFFFFF;" d="M150.603,461.668c-41.521-17.097-65.015-50.362-67.94-96.196 c-2.153-33.738,7.625-62.137,8.043-63.329l15.64,5.473l-7.82-2.737l7.822,2.728c-0.092,0.264-9.174,26.823-7.117,57.284 c2.658,39.383,22.065,66.788,57.681,81.453L150.603,461.668z"/>
        <rect x="247.65" y="152.993" style="fill:#FFFFFF;" width="22.093" height="16.57"/>
        <rect x="275.266" y="186.133" style="fill:#FFFFFF;" width="22.093" height="16.57"/>
        <rect x="286.312" y="152.993" style="fill:#FFFFFF;" width="22.093" height="16.57"/>
      </g>
    </g>
  </g>
  <g>
    <title>Stink</title>
    <path d="M 220.936 44.466 C 219.924 41.834 219.878 41.205 220.607 40.253 C 224.085 35.72 222.513 30.38 220.607 27.896 C 219.928 27.011 218.834 27.013 218.145 27.89 C 217.461 28.768 217.453 30.21 218.121 31.11 C 218.645 31.818 220.196 34.332 218.132 37.026 C 215.488 40.471 216.881 44.103 217.802 46.506 C 218.812 49.136 218.862 49.767 218.132 50.719 C 214.653 55.251 216.225 60.592 218.132 63.074 C 218.472 63.517 218.916 63.741 219.36 63.741 C 219.805 63.741 220.249 63.52 220.592 63.082 C 221.276 62.202 221.285 60.761 220.616 59.861 C 220.093 59.154 218.542 56.638 220.607 53.947 C 223.249 50.499 221.856 46.868 220.936 44.466 Z" style=""/>
    <path d="M 328.281 202.014 C 327.284 198.377 327.237 197.508 327.957 196.193 C 331.389 189.93 329.838 182.552 327.957 179.12 C 327.287 177.898 326.208 177.9 325.528 179.112 C 324.853 180.325 324.845 182.317 325.504 183.561 C 326.021 184.539 327.552 188.012 325.515 191.734 C 322.906 196.494 324.28 201.512 325.19 204.832 C 326.186 208.466 326.235 209.337 325.515 210.653 C 322.082 216.914 323.633 224.293 325.515 227.722 C 325.851 228.335 326.289 228.644 326.727 228.644 C 327.166 228.644 327.604 228.339 327.942 227.734 C 328.618 226.518 328.627 224.527 327.966 223.283 C 327.45 222.307 325.919 218.83 327.957 215.113 C 330.565 210.349 329.19 205.332 328.281 202.014 Z" style=""/>
    <path d="M 145.527 70.139 C 144.474 67.507 144.425 66.878 145.185 65.926 C 148.808 61.393 147.17 56.053 145.185 53.569 C 144.478 52.684 143.338 52.686 142.62 53.563 C 141.907 54.441 141.899 55.883 142.595 56.783 C 143.141 57.491 144.757 60.005 142.607 62.699 C 139.853 66.144 141.303 69.776 142.263 72.179 C 143.315 74.809 143.367 75.44 142.607 76.392 C 138.982 80.924 140.62 86.265 142.607 88.747 C 142.961 89.19 143.424 89.414 143.886 89.414 C 144.35 89.414 144.812 89.193 145.169 88.755 C 145.882 87.875 145.892 86.434 145.194 85.534 C 144.65 84.827 143.034 82.311 145.185 79.62 C 147.938 76.172 146.486 72.541 145.527 70.139 Z" style=""/>
    <path d="M 363.357 178.364 C 362.402 174.6 362.358 173.701 363.047 172.34 C 366.332 165.858 364.847 158.221 363.047 154.669 C 362.405 153.404 361.372 153.407 360.721 154.661 C 360.075 155.916 360.067 157.978 360.698 159.265 C 361.192 160.278 362.659 163.873 360.709 167.725 C 358.211 172.651 359.527 177.845 360.397 181.281 C 361.351 185.042 361.398 185.944 360.709 187.306 C 357.421 193.786 358.907 201.424 360.709 204.973 C 361.03 205.607 361.449 205.927 361.869 205.927 C 362.289 205.927 362.708 205.611 363.032 204.985 C 363.679 203.726 363.688 201.666 363.055 200.379 C 362.561 199.368 361.096 195.77 363.047 191.922 C 365.544 186.991 364.227 181.799 363.357 178.364 Z" style=""/>
    <path d="M 404.976 173.586 C 404.042 170.21 403.999 169.403 404.673 168.182 C 407.888 162.368 406.435 155.518 404.673 152.332 C 404.046 151.196 403.034 151.199 402.398 152.324 C 401.765 153.45 401.758 155.3 402.375 156.454 C 402.86 157.362 404.293 160.587 402.385 164.043 C 399.942 168.462 401.229 173.121 402.081 176.203 C 403.014 179.577 403.06 180.386 402.385 181.607 C 399.17 187.421 400.623 194.272 402.385 197.455 C 402.7 198.024 403.111 198.311 403.521 198.311 C 403.932 198.311 404.342 198.028 404.659 197.466 C 405.292 196.337 405.3 194.488 404.681 193.334 C 404.198 192.427 402.764 189.2 404.673 185.748 C 407.116 181.325 405.828 176.668 404.976 173.586 Z" style=""/>
    <path d="M 292.122 65.317 C 291.11 62.685 291.064 62.056 291.793 61.104 C 295.271 56.571 293.699 51.231 291.793 48.747 C 291.114 47.862 290.02 47.864 289.331 48.741 C 288.647 49.619 288.639 51.061 289.307 51.961 C 289.831 52.669 291.382 55.183 289.318 57.877 C 286.674 61.322 288.067 64.954 288.988 67.357 C 289.998 69.987 290.048 70.618 289.318 71.57 C 285.839 76.102 287.411 81.443 289.318 83.925 C 289.658 84.368 290.102 84.592 290.546 84.592 C 290.991 84.592 291.435 84.371 291.778 83.933 C 292.462 83.053 292.471 81.612 291.802 80.712 C 291.279 80.005 289.728 77.489 291.793 74.798 C 294.435 71.35 293.042 67.719 292.122 65.317 Z" style=""/>
  </g>
  <g style="">
    <title>Hearts</title>
    <g transform="matrix(0.081521, 0, 0, 0.081521, 254.844986, 48.362297)" style="">
      <title>Heart 1</title>
      <path style="fill: rgb(215, 30, 0);" d="M255.22,105.177c19.535-49.77,61.325-87.79,113.231-87.79c43.705,0,79.625,23.111,108.871,54.44 c38.859,41.622,56.17,137.216-15.863,209.24c-36.546,36.546-205.815,212.524-205.815,212.524S86.384,317.613,49.838,281.066 c-72.033-72.024-55.578-167.618-15.863-209.24c29.581-31.002,65.165-54.44,108.871-54.44 C194.751,17.386,235.685,55.407,255.22,105.177"/>
      <path style="fill:#B21606;" d="M429.848,94.824c26.006,21.865,39.538,63.103,31.858,97.341c-0.675,2.978-1.395,6.021-2.154,9.091 c-1.17,4.733,1.718,9.518,6.45,10.689c4.733,1.17,9.518-1.718,10.689-6.45c0.787-3.183,1.534-6.339,2.238-9.446 c9.114-40.635-6.622-88.592-37.718-114.736c-16.942-14.251-37.574-20.273-68.03-20.273c-4.875,0-8.828,3.952-8.828,8.828 s3.952,8.828,8.828,8.828C399.8,78.694,416.45,83.554,429.848,94.824z"/>
    </g>
    <g transform="matrix(0.081521, 0, 0, 0.081521, 218.309158, 73.461189)" style="">
      <title>Heart 2</title>
      <path style="fill:#D71E00;" d="M255.22,105.177c19.535-49.77,61.325-87.79,113.231-87.79c43.705,0,79.625,23.111,108.871,54.44 c38.859,41.622,56.17,137.216-15.863,209.24c-36.546,36.546-205.815,212.524-205.815,212.524S86.384,317.613,49.838,281.066 c-72.033-72.024-55.578-167.618-15.863-209.24c29.581-31.002,65.165-54.44,108.871-54.44 C194.751,17.386,235.685,55.407,255.22,105.177"/>
      <path style="fill:#B21606;" d="M429.848,94.824c26.006,21.865,39.538,63.103,31.858,97.341c-0.675,2.978-1.395,6.021-2.154,9.091 c-1.17,4.733,1.718,9.518,6.45,10.689c4.733,1.17,9.518-1.718,10.689-6.45c0.787-3.183,1.534-6.339,2.238-9.446 c9.114-40.635-6.622-88.592-37.718-114.736c-16.942-14.251-37.574-20.273-68.03-20.273c-4.875,0-8.828,3.952-8.828,8.828 s3.952,8.828,8.828,8.828C399.8,78.694,416.45,83.554,429.848,94.824z"/>
    </g>
    <g transform="matrix(0.081521, 0, 0, 0.081521, 256.584564, 96.801659)" style="">
      <title>Heart 3</title>
      <path style="fill:#D71E00;" d="M255.22,105.177c19.535-49.77,61.325-87.79,113.231-87.79c43.705,0,79.625,23.111,108.871,54.44 c38.859,41.622,56.17,137.216-15.863,209.24c-36.546,36.546-205.815,212.524-205.815,212.524S86.384,317.613,49.838,281.066 c-72.033-72.024-55.578-167.618-15.863-209.24c29.581-31.002,65.165-54.44,108.871-54.44 C194.751,17.386,235.685,55.407,255.22,105.177"/>
      <path style="fill:#B21606;" d="M429.848,94.824c26.006,21.865,39.538,63.103,31.858,97.341c-0.675,2.978-1.395,6.021-2.154,9.091 c-1.17,4.733,1.718,9.518,6.45,10.689c4.733,1.17,9.518-1.718,10.689-6.45c0.787-3.183,1.534-6.339,2.238-9.446 c9.114-40.635-6.622-88.592-37.718-114.736c-16.942-14.251-37.574-20.273-68.03-20.273c-4.875,0-8.828,3.952-8.828,8.828 s3.952,8.828,8.828,8.828C399.8,78.694,416.45,83.554,429.848,94.824z"/>
    </g>
  </g>
</svg>