<?xml version="1.0" encoding="iso-8859-1"?>
<!-- Generator: Adobe Illustrator 19.0.0, SVG Export Plug-In . SVG Version: 6.00 Build 0)  -->
<svg version="1.1" id="Layer_1" xmlns="http://www.w3.org/2000/svg" xmlns:xlink="http://www.w3.org/1999/xlink" x="0px" y="0px"
	 viewBox="0 0 512 512" style="enable-background:new 0 0 512 512;" xml:space="preserve">
<path style="fill:#D64394;" d="M459.411,189.903c6.471,19.898-8.497,44.051-8.497,66.097c0,22.046,14.967,46.199,8.497,66.084
	c-6.687,20.628-33.217,31.326-45.699,48.482c-12.617,17.331-14.684,45.821-32.015,58.438c-17.169,12.482-44.835,5.728-65.449,12.428
	c-19.898,6.457-38.202,28.395-60.248,28.395s-40.363-21.938-60.262-28.395c-20.614-6.7-48.279,0.054-65.449-12.428
	c-17.331-12.617-19.398-41.106-32.002-58.438c-12.495-17.156-39.013-27.855-45.713-48.482c-6.457-19.885,8.497-44.038,8.497-66.084
	c0-22.046-14.954-46.199-8.497-66.097c6.7-20.614,33.217-31.313,45.713-48.482c12.603-17.331,14.67-45.821,32.002-58.424
	c17.169-12.495,44.835-5.741,65.449-12.428C215.637,64.098,233.954,42.16,256,42.16c22.046,0,40.35,21.938,60.248,28.408
	c20.614,6.687,48.279-0.068,65.449,12.428c17.331,12.603,19.398,41.093,32.015,58.424
	C426.194,158.59,452.725,169.289,459.411,189.903z M342.995,256c0-48.05-38.945-87.008-86.995-87.008S168.992,207.95,168.992,256
	S207.95,342.995,256,342.995S342.995,304.05,342.995,256z"/>
<path style="fill:#BC3987;" d="M180.947,429.004c-17.331-12.617-19.398-41.106-32.002-58.438
	c-12.495-17.156-39.013-27.855-45.713-48.482c-6.457-19.885,8.497-44.038,8.497-66.084s-14.954-46.199-8.497-66.097
	c6.7-20.614,33.217-31.313,45.713-48.482c12.603-17.331,14.67-45.821,32.002-58.424c17.169-12.495,44.835-5.741,65.449-12.428
	c11.833-3.85,23.1-13.171,34.933-20.087c-8.065-4.714-16.386-8.321-25.328-8.321c-22.046,0-40.363,21.938-60.262,28.408
	c-20.614,6.687-48.279-0.068-65.449,12.428c-17.331,12.603-19.398,41.093-32.002,58.424c-12.495,17.169-39.013,27.868-45.713,48.482
	c-6.457,19.898,8.497,44.051,8.497,66.097s-14.954,46.199-8.497,66.084c6.7,20.628,33.217,31.326,45.713,48.482
	c12.603,17.331,14.67,45.821,32.002,58.438c17.169,12.482,44.835,5.728,65.449,12.428c19.898,6.457,38.216,28.395,60.262,28.395
	c8.943,0,17.264-3.607,25.328-8.321c-11.833-6.916-23.1-16.237-34.933-20.074C225.781,434.731,198.116,441.486,180.947,429.004z"/>
<path style="fill:#F7B239;" d="M256,0c141.38,0,256,114.606,256,256c0,141.38-114.62,256-256,256C114.606,512,0,397.38,0,256
	C0,114.606,114.606,0,256,0z M450.914,256c0-22.046,14.967-46.199,8.497-66.097c-6.687-20.614-33.217-31.313-45.699-48.482
	c-12.617-17.331-14.684-45.821-32.015-58.424c-17.169-12.495-44.835-5.741-65.449-12.428C296.35,64.098,278.046,42.16,256,42.16
	s-40.363,21.938-60.262,28.408c-20.614,6.687-48.279-0.068-65.449,12.428c-17.331,12.603-19.398,41.093-32.002,58.424
	c-12.495,17.169-39.013,27.868-45.713,48.482c-6.457,19.898,8.497,44.051,8.497,66.097s-14.954,46.199-8.497,66.084
	c6.7,20.628,33.217,31.326,45.713,48.482c12.603,17.331,14.67,45.821,32.002,58.438c17.169,12.482,44.835,5.728,65.449,12.428
	c19.898,6.457,38.216,28.395,60.262,28.395c22.046,0,40.35-21.938,60.248-28.395c20.614-6.7,48.279,0.054,65.449-12.428
	c17.331-12.617,19.398-41.106,32.015-58.438c12.482-17.156,39.013-27.855,45.699-48.482
	C465.882,302.199,450.914,278.046,450.914,256z"/>
<path style="fill:#E09B2D;" d="M24.314,256c0-137.317,108.097-249.359,243.842-255.706C264.127,0.107,260.076,0,256,0
	C114.606,0,0,114.606,0,256c0,141.38,114.606,256,256,256c4.076,0,8.127-0.107,12.156-0.294
	C132.411,505.358,24.314,393.305,24.314,256z"/>
<g>
	<path style="fill:#FFFFFF;" d="M222.953,117.932l28.367,18.235c1.695,1.09,3.593,1.61,5.47,1.61c3.333,0,6.596-1.643,8.531-4.654
		c3.026-4.706,1.663-10.976-3.043-14l-28.367-18.235c-4.708-3.026-10.976-1.664-14.002,3.043
		C216.883,108.638,218.245,114.908,222.953,117.932z"/>
	<path style="fill:#FFFFFF;" d="M300.9,367.518l-29.322,16.652c-4.867,2.763-6.571,8.947-3.807,13.814
		c1.866,3.285,5.293,5.129,8.818,5.129c1.695,0,3.414-0.426,4.994-1.322l29.322-16.652c4.867-2.763,6.571-8.947,3.807-13.814
		C311.951,366.461,305.768,364.757,300.9,367.518z"/>
	<path style="fill:#FFFFFF;" d="M169.714,353.33c-0.488-5.574-5.402-9.692-10.974-9.211c-5.574,0.486-9.699,5.401-9.211,10.974
		l2.934,33.594c0.461,5.274,4.885,9.251,10.081,9.251c0.296,0,0.593-0.012,0.893-0.038c5.574-0.486,9.699-5.401,9.211-10.974
		L169.714,353.33z"/>
	<path style="fill:#FFFFFF;" d="M117.07,184.887c-0.011,0-0.02,0-0.03,0c-5.582,0-10.114,4.517-10.131,10.103l-0.099,33.723
		c-0.016,5.595,4.506,10.145,10.102,10.16c0.011,0,0.02,0,0.03,0c5.582,0,10.114-4.517,10.131-10.103l0.099-33.723
		C127.188,189.453,122.665,184.903,117.07,184.887z"/>
	<path style="fill:#FFFFFF;" d="M398.637,175.566l-33.284-5.425c-5.522-0.901-10.728,2.848-11.628,8.37
		c-0.9,5.522,2.846,10.728,8.37,11.628l33.284,5.425c0.551,0.089,1.1,0.134,1.641,0.134c4.878,0,9.178-3.532,9.988-8.504
		C407.906,181.672,404.16,176.466,398.637,175.566z"/>
	<path style="fill:#FFFFFF;" d="M386.6,274.251c-0.011,0-0.02,0-0.028,0c-5.582,0-10.115,4.517-10.131,10.103l-0.097,33.723
		c-0.016,5.595,4.506,10.145,10.103,10.16c0.011,0,0.02,0,0.028,0c5.582,0,10.115-4.517,10.131-10.103l0.097-33.723
		C396.718,278.817,392.196,274.268,386.6,274.251z"/>
</g>
<g>
</g>
<g>
</g>
<g>
</g>
<g>
</g>
<g>
</g>
<g>
</g>
<g>
</g>
<g>
</g>
<g>
</g>
<g>
</g>
<g>
</g>
<g>
</g>
<g>
</g>
<g>
</g>
<g>
</g>
</svg>
